<?xml version="1.0" standalone="no"?>
<!DOCTYPE svg PUBLIC "-//W3C//DTD SVG 20010904//EN"
 "http://www.w3.org/TR/2001/REC-SVG-20010904/DTD/svg10.dtd">
<svg version="1.0" xmlns="http://www.w3.org/2000/svg"
 width="357.000000pt" height="357.000000pt" viewBox="0 0 357.000000 357.000000"
 preserveAspectRatio="xMidYMid meet">
<metadata>
Created by potrace 1.11, written by Peter Selinger 2001-2013
</metadata>
<g transform="translate(0.000000,357.000000) scale(0.100000,-0.100000)"
fill="#000000" stroke="none">
<path d="M1580 3525 c-47 -7 -100 -15 -117 -19 -18 -4 -36 -8 -40 -8 -19 -1
-154 -52 -218 -83 -145 -69 -304 -205 -394 -336 -65 -94 -133 -230 -174 -346
-20 -57 -34 -103 -31 -103 2 0 1 -8 -5 -17 -5 -10 -11 -36 -15 -58 -3 -22 -8
-51 -12 -65 -6 -29 -19 -310 -13 -310 2 0 38 11 79 24 l75 24 1 74 c9 451 219
821 559 984 203 97 460 130 720 90 162 -24 271 -66 393 -149 192 -132 316
-335 398 -654 14 -56 22 -72 34 -68 8 2 38 9 65 16 28 6 53 15 57 18 4 4 -1
43 -12 88 -88 369 -300 660 -580 796 -108 52 -210 81 -360 102 -84 12 -325 12
-410 0z"/>
<path d="M2047 2745 c-59 -31 -93 -103 -82 -178 6 -39 53 -136 79 -162 39 -39
114 -86 175 -110 66 -26 71 -30 72 -59 1 -17 2 -65 4 -107 7 -199 -58 -349
-149 -349 -68 0 -122 55 -186 193 -42 89 -120 313 -120 345 -1 41 -14 44 -77
16 -59 -25 -62 -28 -84 -87 -61 -168 -173 -368 -249 -444 -35 -35 -38 -37 -57
-25 -34 22 -39 266 -8 422 3 14 7 43 11 65 3 22 9 56 14 75 17 68 50 233 47
236 -3 4 -151 -25 -152 -29 0 -1 -14 -31 -30 -66 -54 -115 -188 -231 -360
-311 -72 -33 -267 -100 -291 -100 -8 0 -14 -5 -14 -12 0 -18 32 -132 40 -141
10 -12 209 57 326 113 87 41 143 75 247 150 12 8 18 10 15 4 -20 -32 -28 -283
-12 -370 29 -160 136 -229 258 -165 77 40 170 159 252 324 36 70 54 93 54 67
0 -19 83 -185 126 -250 23 -36 54 -75 68 -87 92 -80 232 -90 326 -23 94 67
154 247 152 458 -1 56 2 101 7 98 26 -16 277 -26 341 -13 26 5 118 27 135 32
6 1 13 2 16 1 3 0 14 5 23 13 13 11 16 24 12 50 -3 20 -7 53 -8 74 -1 20 -3
37 -4 37 -1 0 -29 -9 -63 -20 -33 -10 -89 -24 -123 -31 -62 -11 -254 -15 -293
-5 -11 2 -31 5 -46 5 -22 1 -28 9 -48 74 -45 141 -102 229 -180 279 -51 32
-117 38 -164 13z m89 -133 c30 -20 112 -157 101 -169 -7 -7 -83 55 -101 82
-39 60 -40 114 0 87z"/>
<path d="M2900 2133 c-30 -8 -58 -17 -62 -21 -3 -4 -9 -36 -12 -71 -15 -161
-68 -307 -160 -441 -47 -70 -76 -102 -178 -197 -39 -37 -57 -86 -57 -155 l1
-48 74 0 74 0 -3 33 c-5 43 6 63 71 122 187 170 320 463 334 740 3 58 -1 60
-82 38z"/>
<path d="M723 1817 l-63 -22 29 -60 c53 -111 127 -199 279 -334 l73 -65 -6
-50 c-4 -28 -8 -55 -8 -61 -1 -6 29 -11 70 -12 l72 -2 6 30 c11 51 7 137 -9
166 -8 16 -43 53 -78 83 -110 95 -193 193 -246 291 -16 29 -35 55 -43 56 -8 1
-42 -8 -76 -20z"/>
<path d="M1009 1101 c0 -3 -2 -15 -4 -26 -11 -54 -15 -125 -8 -126 4 0 241 -1
525 -3 284 -1 519 -4 522 -7 4 -3 0 -6 -8 -6 -8 0 -74 -16 -148 -37 -73 -20
-315 -88 -538 -150 l-405 -112 -11 -83 c-6 -45 -8 -83 -5 -85 3 -1 125 32 271
75 430 125 934 271 945 273 6 2 44 12 85 25 41 12 98 28 125 36 154 44 255 77
251 83 -2 4 -7 34 -11 67 -3 33 -9 62 -11 64 -2 3 -170 6 -372 8 -202 1 -555
4 -784 6 -230 3 -418 2 -419 -2z"/>
<path d="M2539 797 l-66 -22 1 -44 c1 -45 1 -45 -44 -57 -25 -7 -117 -33 -205
-59 -88 -25 -167 -48 -175 -50 -29 -7 -755 -214 -785 -224 -16 -5 -104 -31
-195 -56 -91 -26 -169 -50 -173 -55 -5 -4 -11 -27 -13 -51 -3 -24 -9 -63 -14
-87 -8 -43 -8 -44 19 -37 14 3 175 49 356 102 182 52 335 96 340 97 6 2 30 9
55 16 25 7 50 14 55 16 6 1 136 39 290 84 154 44 287 83 295 85 8 2 61 17 117
33 l102 29 6 -51 c3 -28 9 -70 12 -93 l5 -42 -68 -20 c-38 -11 -202 -57 -364
-102 -162 -45 -356 -99 -430 -120 l-135 -38 328 0 327 -1 177 50 c97 27 178
48 181 45 5 -4 8 -29 11 -72 1 -22 5 -23 77 -23 l76 0 -7 58 c-3 31 -8 77 -10
102 -7 78 -16 164 -20 195 -2 17 -6 50 -9 75 -3 25 -8 68 -10 95 -20 201 -26
245 -34 244 -4 -1 -37 -11 -73 -22z"/>
</g>
</svg>
