<svg version="1" xmlns="http://www.w3.org/2000/svg" width="476" height="476" viewBox="0 0 357.000000 357.000000"><path d="M149.5 5.6C106 13.4 75.7 40.1 60.1 84.3c-5 14.3-7.1 26.6-7.1 42.1 0 10.5.3 13.6 1.3 13.6.7 0 4.3-1 8-2.3l6.7-2.2.5-11.3c1.9-43.4 22.3-78.4 55.1-94.3 26.5-12.8 67.3-13.9 95.4-2.5 18.5 7.4 33.6 21.9 43.5 41.6 3.8 7.6 9.4 23.4 12.5 35.7 1 4 1.1 4.1 4.3 3.3 1.7-.5 5.2-1.4 7.6-2l4.4-1.1-.6-5c-.8-6.7-7.7-27-12.3-36-16.9-33.7-43.2-52.9-79.6-58.3-13.2-2-39.3-2-50.3 0z"/><path d="M199 84.6c-4.4 3.7-6 7.5-6 14 0 12.6 11.1 25.6 26.7 31l5.2 1.8.7 6.5c.9 8.4-.1 22.2-2.1 28.9-.9 2.9-3 6.8-4.6 8.7-2.7 3-3.7 3.5-7.5 3.5-6.7 0-10.6-4-17.5-18.5-5.4-11.1-12.9-33.1-12.9-37.6 0-2.6-.9-2.4-8.3 1.2-6.3 3.1-6.3 3.2-9.1 10.8-7.4 20-22.9 45.1-27.9 45.1-2.2 0-2.9-2.6-3.4-13.1-.7-12.1.8-24.4 5.6-48.4 2.2-10.5 3.8-19.1 3.7-19.1 0-.1-3.8.5-8.3 1.4l-8.2 1.6-2.1 5.1c-2.7 6.7-9.6 15.4-16.8 21-7.7 6.2-24.7 14.5-38.7 19-13 4.1-12.5 3.5-9.9 14.1 1.3 5.1 2 6.3 3.3 6 .9-.3 4.6-1.5 8.3-2.6 15.7-4.8 33.9-13.6 44-21.3l4.4-3.4-.9 7.1c-1.1 8.8-.3 29.8 1.3 34.9 1.4 4.7 6.9 11 11 12.7 8.5 3.5 18.5-1.4 27.4-13.3 4.6-6.2 14.7-22.7 15.9-26.1.6-1.5.5-1.6 6.1 9.9 10.8 22.4 18.9 29.5 33.6 29.5 11.1 0 20.3-7.3 25.1-19.8 3.1-8.4 5.1-21.2 4.7-31.1l-.3-8.7 6.5.9c10.3 1.4 29.2.2 38.5-2.5l8-2.3-.1-8.3c-.1-4.5-.3-8.4-.5-8.6-.2-.2-3.5.6-7.4 1.9-12.4 4.2-31.2 5.3-45.1 2.9-2.8-.5-3.2-1.1-4.3-5.7-1.6-7-7.2-18.3-11.6-23.5-5.1-5.9-10-8.2-17.4-8.2-5 0-6.5.4-9.1 2.6zm14.8 16.6c4 5.9 6.4 10.8 5.3 10.8-3 0-11.1-10.2-11.1-14 0-2.4 3.1-.7 5.8 3.2zM285.2 144.3c-5 1.4-6.2 2.9-6.2 7.7 0 6.2-3.7 21.3-7 29.4-4.6 10.9-11.9 21.5-21.6 31-4.5 4.5-8.7 9.1-9.3 10.3-.6 1.2-1.1 5.1-1.1 8.7v6.6h14.7l.6-4.6c.4-4.2 1.1-5.2 6.4-9.9 10.9-9.8 21.9-26.3 27.3-41.3 3.7-10.2 7-26 7-33.7V143l-3.2.1c-1.8.1-5.2.6-7.6 1.2z"/><path d="M68.6 175.9c-2.8.9-5.1 2.2-5.3 2.8-.6 1.8 4.5 11.8 9.3 18.2 2.5 3.3 9.7 10.9 16 17l11.5 11-.7 5.9c-.6 5.6-.5 5.9 1.7 6.5 1.3.4 5 .7 8.1.7h5.6l.7-6.4c1.2-11.4.2-14.3-7.3-21.1-13.7-12.3-21.9-22.1-26.8-31.8-2.8-5.4-4.4-5.8-12.8-2.8zM96.6 252.2c-.4 2.9-.9 6.8-1.2 8.5l-.6 3.3 51.8.1h51.9L145.2 279c-29.4 8.1-53.6 15.1-53.9 15.4-.5.5-3.3 17.8-2.9 18.2 0 .1 10.7-2.9 23.6-6.6 12.9-3.7 50.9-14.7 84.4-24.4 33.5-9.7 61.1-17.8 61.3-18 .2-.2.1-3.7-.3-7.8l-.6-7.5-46.6-.6c-25.6-.4-61.5-.7-79.7-.7H97.3l-.7 5.2zM250 278l-5.5 1.7-.3 4.6c-.3 4.4-.5 4.7-4 5.6-2 .6-37.7 10.8-79.3 22.7l-75.7 21.6-.6 5.7c-.4 3.1-.9 7.3-1.3 9.3-.5 3.3-.3 3.8 1.5 3.8 1.5 0 111.3-31.1 155-44 3.4-1 6.4-1.5 6.6-1.2.7 1.3 1.8 17.2 1.2 17.2-.4 0-22.4 6-48.9 13.4s-49.1 13.6-50.2 13.9c-1.1.2 13.9.5 33.3.6l35.2.1 16.2-4.5c8.9-2.5 16.5-4.5 17-4.5.4 0 .8 1.9 1 4.2l.3 4.3 7.8.3 7.7.3v-4.8c0-2.7-.9-12.7-1.9-22.3-1.1-9.6-2.8-24.8-3.7-33.8-2-18.4-1.2-17.5-11.4-14.2z"/></svg>